<svg width="44" height="42" viewBox="0 0 44 42" fill="none" xmlns="http://www.w3.org/2000/svg">
<path d="M21.6 41.7C9.90002 41.5 0.400025 32.1 0.600025 20.7C0.800025 9.39996 10.8 -4.33922e-05 22.3 0.299957C34 0.599957 43.3 9.99996 43.2 21.4C43.1 32.7 33.4 41.9 21.6 41.7Z" fill="white"/>
<path d="M23.2002 20.7001C25.7002 19.6001 27.7002 20.3001 29.3002 22.3001C31.3002 24.8001 32.4002 27.6001 31.9002 30.8001C31.8002 31.9001 30.4002 32.0001 29.5002 32.3001C24.4002 33.9001 19.3002 33.6001 14.1002 32.2001C12.1002 31.6001 11.5002 30.5001 11.9002 28.7001C12.4002 26.0001 13.6002 23.6001 15.5002 21.6001C16.8002 20.2001 18.3002 19.6001 20.1002 20.6001C21.1002 20.3001 21.9002 20.6001 21.9002 21.7001C22.0002 23.9001 22.0002 26.2001 21.9002 28.4001C21.9002 26.6001 21.9002 24.7001 22.0002 22.9001C22.2002 22.1001 21.7002 20.9001 23.2002 20.7001Z" fill="#1B99D4"/>
<path d="M20.3 19.7998C21.3 19.8998 22.2001 19.8998 23.2001 19.9998C23.2001 20.1998 23.2001 20.4998 23.2001 20.6998C21.4001 23.2998 23.2 26.3998 21.6 29.0998C21.6 27.1998 21.6 25.3998 21.6 23.4998C21.6 22.3998 22 20.9998 20.3 20.5998C20.3 20.2998 20.3 20.0998 20.3 19.7998Z" fill="white"/>
<path d="M22.1 19.4998C25.4689 19.4998 28.2 16.7687 28.2 13.3998C28.2 10.0309 25.4689 7.2998 22.1 7.2998C18.7311 7.2998 16 10.0309 16 13.3998C16 16.7687 18.7311 19.4998 22.1 19.4998Z" fill="#1B99D4"/>
<path d="M22.9002 21.4004H21.5002V29.1004H22.9002V21.4004Z" fill="white"/>
</svg>
