<svg width="18" height="18" viewBox="0 0 18 18" fill="none" xmlns="http://www.w3.org/2000/svg">
<g clip-path="url(#clip0_1_966)">
<path d="M1.44385 2.28491H14.1938C14.2824 2.28491 14.3709 2.30151 14.4595 2.33472C14.548 2.36792 14.6255 2.41772 14.6919 2.48413C14.7583 2.55054 14.8109 2.62801 14.8496 2.71655C14.8883 2.80509 14.9077 2.89917 14.9077 2.99878V14.321C14.9077 14.4207 14.8883 14.5147 14.8496 14.6033C14.8109 14.6918 14.7583 14.7693 14.6919 14.8357C14.6255 14.9021 14.548 14.9519 14.4595 14.9851C14.3709 15.0183 14.2824 15.0349 14.1938 15.0349H1.44385C1.35531 15.0349 1.26676 15.0183 1.17822 14.9851C1.08968 14.9519 1.01221 14.9021 0.945801 14.8357C0.879395 14.7693 0.826823 14.6918 0.788086 14.6033C0.749349 14.5147 0.72998 14.4207 0.72998 14.321V2.99878C0.72998 2.89917 0.749349 2.80509 0.788086 2.71655C0.826823 2.62801 0.879395 2.55054 0.945801 2.48413C1.01221 2.41772 1.08968 2.36792 1.17822 2.33472C1.26676 2.30151 1.35531 2.28491 1.44385 2.28491ZM13.48 5.28979L7.86865 10.3201L2.15771 5.27319V13.6238H13.48V5.28979ZM2.50635 3.69604L7.86865 8.42749L13.1313 3.69604H2.50635Z" fill="white"/>
</g>
<defs>
<clipPath id="clip0_1_966">
<rect width="17" height="17" fill="white" transform="matrix(1 0 0 -1 0.72998 17.1599)"/>
</clipPath>
</defs>
</svg>
