<svg width="15" height="14" viewBox="0 0 15 14" fill="none" xmlns="http://www.w3.org/2000/svg">
<path d="M7.49609 0.5C7.51388 0.500009 7.53148 0.502147 7.54785 0.506836L7.59375 0.527344C7.6076 0.536075 7.62002 0.546433 7.62988 0.557617L7.65332 0.59375L7.6543 0.595703L9.30957 4.15625L9.43262 4.42188L9.72461 4.44434L13.5488 4.73926C13.567 4.74068 13.5844 4.74486 13.6006 4.75098L13.6445 4.77539C13.6701 4.79477 13.6879 4.81915 13.6973 4.84473V4.8457C13.7151 4.89709 13.7024 4.95635 13.6543 4.99902L10.6113 7.66113L10.3701 7.87109L10.46 8.17773L11.6875 12.3506C11.6912 12.3637 11.6928 12.3772 11.6924 12.3906L11.6846 12.4326C11.6749 12.4598 11.6559 12.4859 11.6279 12.5059C11.5996 12.526 11.5635 12.5382 11.5254 12.5391L11.4697 12.5322L11.4209 12.5107L7.76855 10.1445L7.49609 9.96875L7.22461 10.1445L3.57129 12.5107L3.57031 12.5117C3.54149 12.5303 3.50599 12.5413 3.46875 12.541C3.45011 12.5409 3.43204 12.5374 3.41504 12.5322L3.36719 12.5098C3.35329 12.5004 3.34166 12.4893 3.33203 12.4775L3.30859 12.4385C3.30347 12.4255 3.3008 12.4119 3.2998 12.3984L3.30273 12.3574L4.30273 8.15039L4.36914 7.87012L4.16016 7.67188L1.33398 4.99512V4.99414C1.32268 4.98343 1.31278 4.97229 1.30566 4.95996L1.29102 4.92188C1.28799 4.90909 1.28633 4.89583 1.28711 4.88281L1.2959 4.84375C1.30066 4.83095 1.30755 4.81838 1.31641 4.80664L1.34863 4.77441C1.36164 4.76477 1.37671 4.75689 1.39258 4.75098L1.44336 4.73926L5.26855 4.44434L5.55957 4.42188L5.68359 4.15625L7.33887 0.595703V0.59375C7.34466 0.581196 7.35243 0.568822 7.3623 0.557617L7.39844 0.527344C7.4124 0.518576 7.42791 0.511548 7.44434 0.506836L7.49609 0.5Z" stroke="#FFBA49"/>
</svg>
